Hanif_Deep_2_5_grf.mot
version=1
nRows=53
nColumns=19
inDegrees=yes
endheader
time	right_ground_force_vx	right_ground_force_vy	right_ground_force_vz	right_ground_force_px	right_ground_force_py	right_ground_force_pz	right_ground_torque_x	right_ground_torque_y	right_ground_torque_z	left_ground_force_vx	left_ground_force_vy	left_ground_force_vz	left_ground_force_px	left_ground_force_py	left_ground_force_pz	left_ground_torque_x	left_ground_torque_y	left_ground_torque_z
4.610000	-14.400800	315.293000	38.150200	0.223819	0.000000	-1.430470	-23.972000	1.443540	7.926090	-7.541790	284.038000	-28.969600	0.235323	0.000000	-0.972095	19.791700	-4.708660	10.670900
4.615000	-14.329500	319.289000	38.679700	0.222965	0.000000	-1.430810	-24.169500	1.623850	7.767420	-7.513890	287.403000	-28.231100	0.234854	0.000000	-0.972740	20.209900	-4.858790	10.642700
4.620000	-14.553000	324.250000	39.493500	0.222799	0.000000	-1.433180	-23.780200	1.804570	7.851140	-7.709220	289.905000	-27.539800	0.234521	0.000000	-0.972782	20.402000	-4.980610	10.622200
4.625000	-14.701300	325.421000	40.135900	0.222093	0.000000	-1.433880	-23.643500	1.925350	7.666950	-7.419650	292.763000	-27.093900	0.234526	0.000000	-0.972522	20.516600	-4.992880	10.704200
4.630000	-14.044300	326.151000	40.995900	0.221005	0.000000	-1.434050	-23.633900	1.981670	7.335000	-7.337360	295.633000	-27.094000	0.233961	0.000000	-0.972133	20.601000	-5.143300	10.642300
4.635000	-13.622100	329.451000	41.124800	0.219990	0.000000	-1.435110	-23.517400	2.177990	7.080680	-6.590420	301.301000	-27.426000	0.234353	0.000000	-0.971836	20.884000	-5.170870	10.948300
4.640000	-13.999100	332.980000	40.794000	0.219180	0.000000	-1.436230	-23.403200	2.348060	6.889580	-6.362990	305.909000	-28.440500	0.233248	0.000000	-0.971019	20.947500	-5.342410	10.795800
4.645000	-13.637400	333.613000	40.098700	0.219047	0.000000	-1.436280	-23.429000	2.463430	6.856490	-5.773320	310.489000	-28.748600	0.232234	0.000000	-0.970778	21.170400	-5.454220	10.635400
4.650000	-12.407500	332.971000	38.103300	0.217972	0.000000	-1.437430	-22.986500	2.604670	6.457960	-5.443860	313.633000	-28.523800	0.232026	0.000000	-0.970269	21.215500	-5.503060	10.661200
4.655000	-12.113300	332.975000	37.218000	0.216919	0.000000	-1.437480	-22.970300	2.771830	6.106610	-4.998390	314.891000	-28.765800	0.231449	0.000000	-0.969779	21.135900	-5.560270	10.524200
4.660000	-11.749300	334.436000	35.946300	0.215688	0.000000	-1.437980	-22.901400	2.964830	5.711900	-4.213800	318.870000	-29.388500	0.231050	0.000000	-0.969038	21.148500	-5.695160	10.535500
4.665000	-11.638600	334.746000	34.761400	0.215621	0.000000	-1.438440	-22.768600	3.081630	5.687130	-3.781000	320.383000	-29.231200	0.230207	0.000000	-0.969665	21.440200	-5.801160	10.310800
4.670000	-12.241400	335.113000	33.508000	0.214578	0.000000	-1.439180	-22.553900	3.138970	5.329730	-3.383110	322.510000	-29.575900	0.230045	0.000000	-0.968629	21.239300	-5.885600	10.331300
4.675000	-11.297000	336.595000	33.551600	0.213051	0.000000	-1.439380	-22.575100	3.274400	4.837860	-3.175530	325.406000	-29.898700	0.228782	0.000000	-0.968379	21.342500	-5.870150	10.003300
4.680000	-10.475400	336.252000	33.471000	0.211941	0.000000	-1.439670	-22.443500	3.434670	4.466170	-2.758310	328.164000	-30.332600	0.228728	0.000000	-0.967775	21.315900	-5.992440	10.078600
4.685000	-10.248600	339.828000	33.517100	0.211224	0.000000	-1.441110	-22.190100	3.561750	4.268240	-2.487090	331.345000	-30.580100	0.227814	0.000000	-0.967802	21.525300	-6.104070	9.872870
4.690000	-9.831430	339.399000	33.337700	0.210375	0.000000	-1.440790	-22.267600	3.711810	3.982910	-2.521920	335.952000	-31.085500	0.227372	0.000000	-0.967463	21.709900	-6.088030	9.852820
4.695000	-8.895320	339.314000	32.847600	0.209217	0.000000	-1.442200	-21.770400	3.816570	3.581280	-3.042330	338.915000	-31.412100	0.226632	0.000000	-0.966181	21.477100	-6.105390	9.687340
4.700000	-8.218300	339.792000	32.214000	0.208277	0.000000	-1.442000	-21.861400	4.019950	3.268860	-2.459110	338.699000	-31.410200	0.226218	0.000000	-0.965963	21.377300	-6.155000	9.541680
4.705000	-7.558230	339.296000	31.500400	0.207734	0.000000	-1.441710	-21.921300	4.130870	3.075250	-2.424820	338.376000	-31.131600	0.225269	0.000000	-0.965959	21.355100	-6.191460	9.206570
4.710000	-7.737330	341.229000	30.710300	0.206871	0.000000	-1.442160	-21.894400	4.162600	2.782690	-2.283510	339.290000	-30.908400	0.224596	0.000000	-0.965430	21.229900	-6.225090	8.994560
4.715000	-7.888840	341.299000	29.048500	0.206743	0.000000	-1.442060	-21.935800	4.264690	2.723790	-2.298010	339.127000	-30.121800	0.223852	0.000000	-0.965403	21.210600	-6.226710	8.718320
4.720000	-8.374470	341.493000	27.890100	0.205645	0.000000	-1.443030	-21.626200	4.281290	2.333390	-2.366590	336.320000	-29.296500	0.223212	0.000000	-0.965791	21.167700	-6.255100	8.423700
4.725000	-8.260230	341.771000	27.492500	0.205162	0.000000	-1.443550	-21.463600	4.347520	2.166820	-1.253490	336.436000	-28.615100	0.222404	0.000000	-0.964887	20.847200	-6.345490	8.138290
4.730000	-7.623610	343.141000	27.528700	0.203716	0.000000	-1.443730	-21.477900	4.468260	1.679860	-0.298646	338.572000	-28.520400	0.221501	0.000000	-0.964902	20.964700	-6.462460	7.877110
4.735000	-7.121550	344.041000	27.329900	0.203530	0.000000	-1.444090	-21.402500	4.518260	1.616230	0.243571	338.626000	-29.391800	0.220448	0.000000	-0.964727	20.897100	-6.589840	7.547000
4.740000	-7.120540	344.629000	26.431800	0.202731	0.000000	-1.444460	-21.314400	4.561600	1.330140	0.917571	340.781000	-29.081600	0.220501	0.000000	-0.964619	20.979000	-6.749020	7.608400
4.745000	-8.127930	344.637000	25.308000	0.202283	0.000000	-1.444650	-21.259700	4.432980	1.153030	1.636180	340.790000	-28.956800	0.219603	0.000000	-0.964169	20.811000	-6.794860	7.297730
4.750000	-8.143880	343.444000	24.014000	0.201685	0.000000	-1.444360	-21.290100	4.468940	0.928964	2.641710	342.288000	-29.374000	0.218253	0.000000	-0.964001	20.823000	-6.989760	6.879920
4.755000	-8.673220	343.668000	22.473500	0.201317	0.000000	-1.444890	-21.127600	4.436750	0.779171	4.002800	343.038000	-28.962000	0.218389	0.000000	-0.963905	20.807100	-7.037540	6.926560
4.760000	-9.140610	342.820000	21.472000	0.200613	0.000000	-1.444880	-21.086600	4.486880	0.526835	4.209000	345.347000	-29.163100	0.217890	0.000000	-0.963822	20.914800	-7.114560	6.801390
4.765000	-8.523020	343.429000	19.782100	0.200255	0.000000	-1.445080	-21.046100	4.522420	0.378241	4.182530	348.125000	-28.904400	0.217538	0.000000	-0.963345	20.918000	-7.204030	6.724530
4.770000	-8.184460	342.256000	18.881200	0.199371	0.000000	-1.445110	-20.962700	4.586450	0.064706	4.604810	349.425000	-28.018400	0.217209	0.000000	-0.963127	20.911500	-7.264830	6.612210
4.775000	-6.860350	341.069000	18.199200	0.198773	0.000000	-1.445420	-20.765200	4.734080	-0.144827	4.853570	348.215000	-27.654500	0.216871	0.000000	-0.963594	20.995500	-7.312870	6.469370
4.780000	-6.299540	341.375000	17.267300	0.197973	0.000000	-1.445210	-20.848900	4.807120	-0.431120	5.476100	349.928000	-27.729200	0.216624	0.000000	-0.963147	20.930200	-7.328160	6.408180
4.785000	-5.266780	344.198000	16.266100	0.197130	0.000000	-1.445530	-20.892700	4.924170	-0.742271	5.183210	349.188000	-26.855300	0.216295	0.000000	-0.963206	20.912500	-7.339930	6.264120
4.790000	-4.227200	343.938000	15.551900	0.196452	0.000000	-1.444750	-21.131200	5.087760	-0.980854	5.064980	347.477000	-25.836000	0.215899	0.000000	-0.962896	20.703500	-7.358590	6.079550
4.795000	-3.423660	346.249000	14.974900	0.196228	0.000000	-1.445770	-20.905400	5.123330	-1.078030	5.699320	344.371000	-24.743600	0.216112	0.000000	-0.963330	20.652700	-7.387350	6.083130
4.800000	-2.174350	346.348000	14.864900	0.195100	0.000000	-1.445520	-20.979600	5.178150	-1.472410	5.391580	343.484000	-23.231100	0.216004	0.000000	-0.963514	20.669300	-7.367210	5.998400
4.805000	-0.904065	345.346000	14.937600	0.194539	0.000000	-1.445840	-20.791100	5.204510	-1.662040	5.340300	340.049000	-21.532100	0.215553	0.000000	-0.963505	20.458300	-7.399350	5.757910
4.810000	-0.236378	344.838000	15.104100	0.193031	0.000000	-1.446100	-20.659100	5.219610	-2.178680	5.770340	338.942000	-20.428600	0.215466	0.000000	-0.964074	20.575600	-7.369020	5.683950
4.815000	0.932729	345.862000	15.439300	0.193141	0.000000	-1.446460	-20.578700	5.207330	-2.146960	6.246310	339.363000	-18.892700	0.215512	0.000000	-0.963798	20.497700	-7.422050	5.672660
4.820000	1.673620	346.541000	15.321100	0.192451	0.000000	-1.446870	-20.468000	5.323820	-2.390020	6.122230	337.383000	-17.341800	0.216139	0.000000	-0.964431	20.592400	-7.439390	5.822630
4.825000	2.205210	346.742000	15.037700	0.192153	0.000000	-1.447390	-20.288200	5.419430	-2.496520	6.172400	336.305000	-16.075100	0.215873	0.000000	-0.964626	20.591300	-7.411270	5.686560
4.830000	2.473760	346.171000	14.840500	0.191431	0.000000	-1.447700	-20.145000	5.398240	-2.746690	6.101250	335.594000	-14.366600	0.216597	0.000000	-0.965304	20.774300	-7.532450	5.886320
4.835000	2.949250	346.897000	14.520800	0.191242	0.000000	-1.448210	-20.004000	5.465380	-2.821700	6.058620	335.688000	-13.094000	0.216153	0.000000	-0.965038	20.693100	-7.499120	5.708630
4.840000	2.749180	348.211000	14.302500	0.191077	0.000000	-1.447500	-20.326900	5.590310	-2.889430	6.216090	335.700000	-11.971600	0.216330	0.000000	-0.965445	20.826400	-7.549860	5.744180
4.845000	2.651910	345.981000	13.275500	0.190680	0.000000	-1.448330	-19.910300	5.678030	-3.017190	6.287590	335.551000	-10.895300	0.217000	0.000000	-0.965724	20.908700	-7.599140	5.944450
4.850000	2.897100	344.014000	12.504300	0.190434	0.000000	-1.447730	-19.998200	5.832760	-3.089200	6.120990	333.537000	-9.460900	0.217432	0.000000	-0.966005	20.879500	-7.577960	6.022910
4.855000	3.840280	343.650000	12.056000	0.189738	0.000000	-1.448340	-19.752300	5.919970	-3.330890	6.408080	334.841000	-8.432440	0.217614	0.000000	-0.966452	21.102800	-7.760040	6.086860
4.860000	4.744410	342.216000	12.157700	0.189095	0.000000	-1.448550	-19.584500	5.984390	-3.533520	6.245470	334.183000	-7.115850	0.218023	0.000000	-0.967338	21.361400	-7.728570	6.181750
4.865000	5.227830	339.133000	12.216100	0.188460	0.000000	-1.448960	-19.260100	5.954990	-3.714750	6.768260	334.565000	-6.448100	0.218303	0.000000	-0.967754	21.514600	-7.722640	6.266310
4.870000	5.045790	338.368000	12.140800	0.188461	0.000000	-1.448620	-19.331400	6.018630	-3.703870	6.036750	334.049000	-5.610940	0.218519	0.000000	-0.968199	21.644700	-7.757630	6.311720
